<?xml version="1.0" encoding="utf-8"?>
<!-- Generator: Adobe Illustrator 23.1.0, SVG Export Plug-In . SVG Version: 6.00 Build 0)  -->
<svg version="1.1" id="Capa_2" xmlns="http://www.w3.org/2000/svg" xmlns:xlink="http://www.w3.org/1999/xlink" x="0px" y="0px"
	 viewBox="0 0 523.53 523.53" style="enable-background:new 0 0 523.53 523.53;" xml:space="preserve">
<style type="text/css">
	.st0{fill:#274294;}
	.st1{fill:#010202;}
	.st2{fill:#E30E13;}
	.st3{fill:none;}
</style>
<g>
	<path class="st0" d="M64.93,378.29h-7.8v-2.4c0-1.12-0.1-1.83-0.3-2.14c-0.2-0.31-0.53-0.46-1-0.46c-0.51,0-0.89,0.21-1.15,0.62
		c-0.26,0.41-0.39,1.04-0.39,1.88c0,1.08,0.15,1.89,0.44,2.44c0.28,0.55,1.07,1.21,2.37,1.98c3.74,2.22,6.1,4.04,7.07,5.47
		c0.97,1.42,1.46,3.72,1.46,6.89c0,2.3-0.27,4-0.81,5.09c-0.54,1.09-1.58,2.01-3.12,2.75c-1.54,0.74-3.34,1.11-5.39,1.11
		c-2.25,0-4.17-0.43-5.76-1.28c-1.59-0.85-2.63-1.94-3.12-3.25c-0.49-1.32-0.74-3.19-0.74-5.61v-2.12h7.8v3.93
		c0,1.21,0.11,1.99,0.33,2.33c0.22,0.35,0.61,0.52,1.17,0.52c0.56,0,0.97-0.22,1.25-0.66c0.27-0.44,0.41-1.09,0.41-1.96
		c0-1.9-0.26-3.15-0.78-3.73c-0.53-0.58-1.84-1.56-3.93-2.93c-2.09-1.38-3.47-2.39-4.15-3.01c-0.68-0.63-1.24-1.49-1.69-2.59
		c-0.45-1.1-0.67-2.52-0.67-4.23c0-2.48,0.32-4.29,0.95-5.43c0.63-1.14,1.65-2.04,3.06-2.68c1.41-0.65,3.11-0.97,5.11-0.97
		c2.18,0,4.04,0.35,5.58,1.06c1.54,0.71,2.55,1.59,3.05,2.67c0.5,1.07,0.75,2.89,0.75,5.46V378.29z"/>
	<path class="st0" d="M91.22,387.43c0,3.25-0.08,5.55-0.23,6.9c-0.15,1.35-0.63,2.58-1.44,3.7c-0.81,1.12-1.89,1.98-3.26,2.57
		c-1.37,0.6-2.97,0.9-4.79,0.9c-1.73,0-3.28-0.28-4.66-0.85c-1.38-0.57-2.48-1.41-3.32-2.55c-0.84-1.13-1.34-2.36-1.5-3.69
		c-0.16-1.33-0.24-3.66-0.24-6.99v-5.53c0-3.25,0.08-5.55,0.23-6.9s0.63-2.58,1.44-3.7c0.8-1.12,1.89-1.98,3.26-2.58
		c1.37-0.6,2.97-0.9,4.79-0.9c1.73,0,3.28,0.28,4.66,0.85c1.38,0.57,2.48,1.41,3.32,2.54c0.84,1.13,1.34,2.36,1.5,3.69
		c0.16,1.33,0.24,3.66,0.24,6.99V387.43z M82.82,376.81c0-1.5-0.08-2.46-0.25-2.88s-0.51-0.63-1.03-0.63
		c-0.44,0-0.78,0.17-1.01,0.51c-0.23,0.34-0.35,1.34-0.35,3v15.09c0,1.88,0.08,3.03,0.23,3.47c0.15,0.44,0.51,0.66,1.07,0.66
		c0.57,0,0.94-0.25,1.1-0.76s0.24-1.71,0.24-3.61V376.81z"/>
	<path class="st0" d="M106.52,368.51v25.85h5.11v6.47H98.12v-32.32H106.52z"/>
	<path class="st0" d="M136.53,368.51v21.6c0,2.45-0.08,4.17-0.24,5.16s-0.63,2.01-1.42,3.05c-0.79,1.04-1.82,1.84-3.1,2.38
		c-1.28,0.54-2.8,0.81-4.54,0.81c-1.93,0-3.63-0.32-5.11-0.96c-1.48-0.64-2.58-1.47-3.31-2.5c-0.73-1.02-1.17-2.11-1.3-3.24
		s-0.2-3.53-0.2-7.18v-19.12h8.4v24.23c0,1.41,0.08,2.31,0.23,2.71c0.15,0.39,0.46,0.59,0.93,0.59c0.53,0,0.87-0.22,1.03-0.65
		c0.15-0.43,0.23-1.45,0.23-3.06v-23.81H136.53z"/>
	<path class="st0" d="M163.17,382.58h-8.4v-5.62c0-1.63-0.09-2.65-0.27-3.06c-0.18-0.4-0.58-0.61-1.19-0.61
		c-0.69,0-1.13,0.25-1.32,0.74c-0.19,0.49-0.28,1.56-0.28,3.19v15.01c0,1.57,0.09,2.59,0.28,3.07c0.19,0.48,0.61,0.72,1.26,0.72
		c0.63,0,1.03-0.24,1.23-0.72s0.29-1.61,0.29-3.38v-4.06h8.4v1.26c0,3.34-0.24,5.72-0.71,7.12c-0.47,1.4-1.52,2.63-3.13,3.68
		s-3.61,1.58-5.98,1.58c-2.46,0-4.49-0.45-6.09-1.34c-1.6-0.89-2.65-2.13-3.17-3.7c-0.52-1.58-0.78-3.95-0.78-7.12v-9.44
		c0-2.33,0.08-4.08,0.24-5.24c0.16-1.16,0.64-2.29,1.43-3.36c0.79-1.08,1.89-1.93,3.29-2.54c1.4-0.62,3.02-0.93,4.84-0.93
		c2.48,0,4.52,0.48,6.13,1.43c1.61,0.96,2.67,2.15,3.17,3.58c0.51,1.43,0.76,3.65,0.76,6.67V382.58z"/>
	<path class="st0" d="M178.34,368.51v32.32h-8.4v-32.32H178.34z"/>
	<path class="st0" d="M204.68,387.43c0,3.25-0.08,5.55-0.23,6.9c-0.15,1.35-0.63,2.58-1.44,3.7c-0.81,1.12-1.89,1.98-3.26,2.57
		c-1.37,0.6-2.97,0.9-4.79,0.9c-1.73,0-3.28-0.28-4.66-0.85c-1.38-0.57-2.48-1.41-3.32-2.55c-0.84-1.13-1.34-2.36-1.5-3.69
		c-0.16-1.33-0.24-3.66-0.24-6.99v-5.53c0-3.25,0.08-5.55,0.23-6.9s0.63-2.58,1.44-3.7c0.8-1.12,1.89-1.98,3.26-2.58
		c1.37-0.6,2.97-0.9,4.79-0.9c1.73,0,3.28,0.28,4.66,0.85c1.38,0.57,2.48,1.41,3.32,2.54c0.84,1.13,1.34,2.36,1.5,3.69
		c0.16,1.33,0.24,3.66,0.24,6.99V387.43z M201.75,362.08l-6.57,5.41h-4.05l3.51-5.41H201.75z M196.28,376.81
		c0-1.5-0.08-2.46-0.25-2.88s-0.51-0.63-1.03-0.63c-0.44,0-0.78,0.17-1.01,0.51c-0.23,0.34-0.35,1.34-0.35,3v15.09
		c0,1.88,0.08,3.03,0.23,3.47c0.15,0.44,0.51,0.66,1.07,0.66c0.57,0,0.94-0.25,1.1-0.76s0.24-1.71,0.24-3.61V376.81z"/>
	<path class="st0" d="M230.34,368.51v32.32h-7.37l-4.37-14.69v14.69h-7.03v-32.32h7.03l4.71,14.55v-14.55H230.34z"/>
	<path class="st0" d="M266.24,378.29h-7.8v-2.4c0-1.12-0.1-1.83-0.3-2.14c-0.2-0.31-0.53-0.46-1-0.46c-0.51,0-0.89,0.21-1.15,0.62
		c-0.26,0.41-0.39,1.04-0.39,1.88c0,1.08,0.15,1.89,0.44,2.44c0.28,0.55,1.07,1.21,2.37,1.98c3.74,2.22,6.1,4.04,7.07,5.47
		c0.97,1.42,1.46,3.72,1.46,6.89c0,2.3-0.27,4-0.81,5.09c-0.54,1.09-1.58,2.01-3.12,2.75c-1.54,0.74-3.34,1.11-5.39,1.11
		c-2.25,0-4.17-0.43-5.76-1.28c-1.59-0.85-2.63-1.94-3.12-3.25c-0.49-1.32-0.74-3.19-0.74-5.61v-2.12h7.8v3.93
		c0,1.21,0.11,1.99,0.33,2.33c0.22,0.35,0.61,0.52,1.17,0.52c0.56,0,0.97-0.22,1.25-0.66c0.27-0.44,0.41-1.09,0.41-1.96
		c0-1.9-0.26-3.15-0.78-3.73c-0.53-0.58-1.84-1.56-3.93-2.93c-2.09-1.38-3.47-2.39-4.15-3.01c-0.68-0.63-1.24-1.49-1.69-2.59
		c-0.45-1.1-0.67-2.52-0.67-4.23c0-2.48,0.32-4.29,0.95-5.43c0.63-1.14,1.65-2.04,3.06-2.68c1.41-0.65,3.11-0.97,5.11-0.97
		c2.18,0,4.04,0.35,5.58,1.06c1.54,0.71,2.56,1.59,3.05,2.67s0.75,2.89,0.75,5.46V378.29z"/>
	<path class="st0" d="M278.47,394.24v6.59h-6.09v-6.59H278.47z"/>
	<path class="st0" d="M310.14,368.51l4.81,32.32h-8.59l-0.45-5.81h-3.01l-0.51,5.81h-8.69l4.29-32.32H310.14z M305.68,389.29
		c-0.42-3.66-0.85-8.18-1.28-13.57c-0.86,6.19-1.39,10.71-1.61,13.57H305.68z"/>
	<path class="st0" d="M326.28,394.24v6.59h-6.09v-6.59H326.28z"/>
	<path class="st0" d="M343.42,368.51h6.29c4.06,0,6.8,0.19,8.23,0.56c1.43,0.37,2.52,0.98,3.26,1.84c0.75,0.85,1.21,1.8,1.4,2.84
		s0.28,3.1,0.28,6.16v11.32c0,2.9-0.14,4.84-0.41,5.82c-0.27,0.98-0.75,1.74-1.43,2.3c-0.68,0.55-1.52,0.94-2.51,1.16
		s-2.5,0.33-4.51,0.33h-10.6V368.51z M351.82,374.04v21.26c1.21,0,1.96-0.24,2.24-0.73c0.28-0.49,0.42-1.81,0.42-3.96v-12.55
		c0-1.46-0.05-2.4-0.14-2.81c-0.09-0.41-0.31-0.72-0.64-0.91C353.37,374.13,352.74,374.04,351.82,374.04z"/>
	<path class="st0" d="M369.78,368.51h14.01v6.47h-5.61v6.13h5.25v6.15h-5.25v7.11h6.17v6.47h-14.57V368.51z"/>
	<path class="st0" d="M421.11,382.58h-8.4v-5.62c0-1.63-0.09-2.65-0.27-3.06c-0.18-0.4-0.58-0.61-1.19-0.61
		c-0.69,0-1.13,0.25-1.32,0.74c-0.19,0.49-0.28,1.56-0.28,3.19v15.01c0,1.57,0.09,2.59,0.28,3.07c0.19,0.48,0.61,0.72,1.26,0.72
		c0.63,0,1.03-0.24,1.23-0.72c0.19-0.48,0.29-1.61,0.29-3.38v-4.06h8.4v1.26c0,3.34-0.24,5.72-0.71,7.12
		c-0.47,1.4-1.52,2.63-3.13,3.68c-1.62,1.05-3.61,1.58-5.98,1.58c-2.46,0-4.49-0.45-6.09-1.34c-1.6-0.89-2.66-2.13-3.17-3.7
		c-0.52-1.58-0.78-3.95-0.78-7.12v-9.44c0-2.33,0.08-4.08,0.24-5.24c0.16-1.16,0.63-2.29,1.43-3.36s1.89-1.93,3.29-2.54
		c1.4-0.62,3.02-0.93,4.84-0.93c2.48,0,4.52,0.48,6.13,1.43c1.61,0.96,2.67,2.15,3.17,3.58c0.51,1.43,0.76,3.65,0.76,6.67V382.58z"
		/>
	<path class="st0" d="M433.02,394.24v6.59h-6.09v-6.59H433.02z"/>
	<path class="st0" d="M459.17,368.51l-4.28,32.32h-12.76l-4.86-32.32h8.86c1.03,8.9,1.77,16.43,2.21,22.59
		c0.43-6.23,0.9-11.76,1.38-16.59l0.58-6.01H459.17z"/>
	<path class="st0" d="M467.92,394.24v6.59h-6.09v-6.59H467.92z"/>
</g>
<path class="st1" d="M494.31,315.26c-6.57,0-11.92,5.34-11.92,11.91c0,1.82,0.42,3.53,1.15,5.08l-13.69,13.69l-431.76,0
	l-19.72,19.72l5.66,5.66l17.38-17.38h431.77l16.01-16.02c1.55,0.74,3.28,1.17,5.12,1.17c6.57,0,11.91-5.35,11.91-11.92
	S500.88,315.26,494.31,315.26z M494.31,331.09c-2.16,0-3.92-1.76-3.92-3.92s1.76-3.91,3.92-3.91c2.16,0,3.91,1.76,3.91,3.91
	S496.47,331.09,494.31,331.09z"/>
<g>
	<path class="st0" d="M241.31,158.98c4.34-0.92,6.87-3.66,7.6-4.85c0.62-1.02,2.74-5.96,1.6-10.09c-1.02-3.68-3.72-3.5-5.23-8.04
		c-0.57-1.71-1.37-3.96-0.86-7.28c0.11-0.73,2.49-5.97,1.86-6.5c-1.82-1.51-14.11,5.55-17.53,16.2c-0.97,3.03-3.09,9.64,0.64,15.06
		C231.68,156.85,236.41,160.03,241.31,158.98z"/>
	<path class="st0" d="M222.82,274.24v19.84l-4.44-4.44l-5.66,5.66l15.41,15.41h103.33l9.15,9.15c-0.32,0.87-0.5,1.81-0.5,2.79
		c0,4.5,3.66,8.16,8.16,8.16s8.16-3.66,8.16-8.16s-3.66-8.16-8.16-8.16c-0.54,0-1.06,0.06-1.57,0.15l-11.93-11.93h-27.61v-28.47
		l10.11-12.69h20.9v-14.17h-17.65v-18.1l14.95-18.5c0.01-0.02,0.03-0.03,0.04-0.05l28.47-35.24c0.63-0.78,0.59-1.9-0.1-2.63
		c-0.68-0.73-1.8-0.84-2.62-0.26l-63.76,45.24v-3.26h-28.99v32.79h-5.17l-3.24-20.22l-2.09-13.09l-2.47-15.43l-0.32-2.02l-1.28-7.99
		l-3.34-20.89l-0.69-4.29h-19.91l-2.79,17.42l-0.54,3.38l-0.94,5.86l-0.25,1.58l-1.03,6.44l-2.11,13.16l-2.15,13.45l-1.32,8.22
		l-0.27,1.73l-2.03,12.69h-16.16v14.17h12.29L222.82,274.24z M348.28,320.49c1.19,0,2.16,0.97,2.16,2.16s-0.97,2.16-2.16,2.16
		s-2.16-0.97-2.16-2.16S347.09,320.49,348.28,320.49z M347.21,187.49l4.55-3.23l-4.71,5.82L347.21,187.49z M343.03,190.46l-0.2,3.46
		l-3.94-0.53L343.03,190.46z M340.91,197.7l-5.1,6.31l-0.17-7.01L340.91,197.7z M331.68,198.51l0.21,8.63l-10.03-1.66L331.68,198.51
		z M330.23,210.92l-9.72,12.03h-0.23l-1.31-13.89L330.23,210.92z M226.36,247.38l4.07-4.07l4.07,4.07H226.36z M246.03,202.8
		l-6.06,6.06l-6.06-6.06l6.06-6.06L246.03,202.8z M235.15,186.26l4.82-4.82l4.82,4.82l-4.82,4.82L235.15,186.26z M246.77,221.32
		l-6.8,6.8l-6.8-6.8l6.8-6.8L246.77,221.32z M246.68,240.48l-6.71,6.71l-6.71-6.71l6.71-6.71L246.68,240.48z M249.51,243.31
		l2.65,2.65l0,0l1.42,1.42h-8.14L249.51,243.31z M297.52,222.75l17.55-12.45l1.2,12.65h-18.75V222.75z M284.6,261.55l10.11,12.69
		v28.47h-59.43v-28.47l10.11-12.69H284.6z M254.46,238.36l0.81,5.05l-2.93-2.93L254.46,238.36z M253.68,233.49l-4.17,4.17
		l-6.71-6.71l6.8-6.8l3.07,3.07L253.68,233.49z M251.04,217.04l-1.44,1.44l-6.8-6.8l6.37-6.37L251.04,217.04z M248.21,199.32
		l-5.41-5.41l3.91-3.91L248.21,199.32z M245.29,181.1l-2.49-2.49l1.8-1.8L245.29,181.1z M236.3,170.81h7.34l0.26,1.6l-0.28-0.28
		l-3.65,3.65l-3.65-3.65l-0.28,0.28L236.3,170.81z M235.34,176.81l1.8,1.8l-2.49,2.49L235.34,176.81z M233.23,190l3.91,3.91
		l-5.4,5.4L233.23,190z M230.78,205.32l6.36,6.36l-6.8,6.8l-0.51-0.51l0,0l-0.93-0.93L230.78,205.32z M227.28,227.21l3.06-3.06
		l6.8,6.8l-6.71,6.71l-4.16-4.16L227.28,227.21z M225.49,238.37l2.11,2.11l-2.92,2.92L225.49,238.37z"/>
	<path class="st0" d="M204.99,313.08c0.66,0,1.31-0.09,1.92-0.24l13.37,13.37h103.33l11.63,11.63l5.66-5.66l-13.97-13.97H223.59
		l-10.82-10.82c0.25-0.78,0.38-1.61,0.38-2.47c0-4.5-3.66-8.16-8.16-8.16s-8.16,3.66-8.16,8.16S200.49,313.08,204.99,313.08z
		 M204.99,302.75c1.19,0,2.16,0.97,2.16,2.16s-0.97,2.16-2.16,2.16s-2.16-0.97-2.16-2.16S203.8,302.75,204.99,302.75z"/>
</g>
<g>
	<path d="M184.64,163.62v167h-37.96l-0.05-112.74l-15.11,112.74H104.6L88.66,220.46l-0.05,110.16H50.65v-167h56.19
		c1.67,10.04,3.39,21.88,5.16,35.5l6.16,42.48l9.98-77.98H184.64z"/>
	<path class="st2" d="M464.01,214.17h-40.33v-12.38c0-5.78-0.52-9.46-1.55-11.04c-1.03-1.58-2.75-2.37-5.16-2.37
		c-2.61,0-4.59,1.07-5.93,3.2c-1.34,2.14-2.01,5.37-2.01,9.7c0,5.58,0.76,9.77,2.26,12.59c1.44,2.82,5.53,6.22,12.27,10.21
		c19.33,11.48,31.5,20.89,36.52,28.25c5.02,7.36,7.53,19.22,7.53,35.59c0,11.9-1.39,20.66-4.18,26.3
		c-2.79,5.64-8.17,10.37-16.14,14.18c-7.98,3.82-17.26,5.72-27.85,5.72c-11.62,0-21.54-2.2-29.76-6.6
		c-8.22-4.4-13.6-10.01-16.14-16.81c-2.54-6.81-3.82-16.47-3.82-28.98v-10.93h40.33v20.32c0,6.26,0.57,10.28,1.7,12.07
		c1.13,1.79,3.15,2.68,6.03,2.68s5.04-1.13,6.45-3.4s2.11-5.64,2.11-10.11c0-9.83-1.34-16.26-4.02-19.29
		c-2.75-3.03-9.52-8.08-20.32-15.16c-10.8-7.15-17.95-12.34-21.45-15.58c-3.51-3.23-6.41-7.7-8.72-13.41
		c-2.3-5.71-3.46-13-3.46-21.87c0-12.79,1.63-22.14,4.9-28.06s8.54-10.54,15.83-13.87s16.09-5,26.41-5
		c11.28,0,20.89,1.82,28.83,5.47c7.94,3.64,13.2,8.23,15.78,13.77s3.87,14.94,3.87,28.21V214.17z"/>
</g>
<rect class="st3" width="523.53" height="523.53"/>
</svg>
